<?xml version="1.0" encoding="UTF-8" standalone="no"?>
<!-- Created with Inkscape (http://www.inkscape.org/) -->

<svg
   xmlns:dc="http://purl.org/dc/elements/1.1/"
   xmlns:cc="http://creativecommons.org/ns#"
   xmlns:rdf="http://www.w3.org/1999/02/22-rdf-syntax-ns#"
   xmlns:svg="http://www.w3.org/2000/svg"
   xmlns="http://www.w3.org/2000/svg"
   xmlns:sodipodi="http://sodipodi.sourceforge.net/DTD/sodipodi-0.dtd"
   xmlns:inkscape="http://www.inkscape.org/namespaces/inkscape"
   width="500"
   height="500"
   viewBox="0 0 132.29166 132.29167"
   version="1.1"
   id="svg8"
   inkscape:version="0.92.1 r15371"
   sodipodi:docname="vodoznak.svg">
  <title
     id="title4540">Vědátor vodoznak</title>
  <defs
     id="defs2" />
  <sodipodi:namedview
     id="base"
     pagecolor="#ffffff"
     bordercolor="#666666"
     borderopacity="1.0"
     inkscape:pageopacity="0.0"
     inkscape:pageshadow="2"
     inkscape:zoom="0.49497475"
     inkscape:cx="338.5586"
     inkscape:cy="135.99687"
     inkscape:document-units="px"
     inkscape:current-layer="g4515"
     showgrid="false"
     inkscape:window-width="1366"
     inkscape:window-height="712"
     inkscape:window-x="0"
     inkscape:window-y="0"
     inkscape:window-maximized="1"
     units="px"
     inkscape:snap-global="false" />
  <metadata
     id="metadata5">
    <rdf:RDF>
      <cc:Work
         rdf:about="">
        <dc:format>image/svg+xml</dc:format>
        <dc:type
           rdf:resource="http://purl.org/dc/dcmitype/StillImage" />
        <dc:title>Vědátor vodoznak</dc:title>
        <cc:license
           rdf:resource="" />
        <dc:creator>
          <cc:Agent>
            <dc:title>Vědátor</dc:title>
          </cc:Agent>
        </dc:creator>
        <dc:publisher>
          <cc:Agent>
            <dc:title>Vědátor</dc:title>
          </cc:Agent>
        </dc:publisher>
      </cc:Work>
    </rdf:RDF>
  </metadata>
  <g
     inkscape:label="Vrstva 1"
     inkscape:groupmode="layer"
     id="layer1"
     transform="translate(0,-164.70831)">
    <g
       id="g4515"
       transform="translate(-130.77976,0.75595238)">
      <g
         id="g4569">
        <path
           inkscape:connector-curvature="0"
           id="path4561"
           d="m 197.96503,286.03867 11.62276,0.47247 23.52902,-21.73363 -1.32291,-10.58334 8.40997,-7.37053 1.79538,-19.74926 -14.64657,-27.11979 -37.04167,-4.06324 0.56696,90.24181 z"
           style="fill:#ffffff;fill-rule:evenodd;stroke:#000000;stroke-width:0.26458332px;stroke-linecap:butt;stroke-linejoin:miter;stroke-opacity:1;fill-opacity:1" />
        <ellipse
           ry="8.8198938"
           rx="8.0180855"
           cy="234.71158"
           cx="177.56227"
           id="path4542"
           style="opacity:1;fill:#ff0000;fill-opacity:1;fill-rule:nonzero;stroke:#000000;stroke-width:0.79374999;stroke-linecap:round;stroke-linejoin:round;stroke-miterlimit:4;stroke-dasharray:none;stroke-opacity:1;paint-order:markers fill stroke" />
        <path
           inkscape:connector-curvature="0"
           id="path4517"
           d="m 192.35209,288.11994 c -1.03276,-0.17885 -5.5331,-1.63992 -6.34596,-2.06026 -0.40202,-0.2079 -1.25035,-1.00779 -1.88517,-1.77754 -1.71267,-2.0767 -4.6637,-4.97648 -6.37022,-6.25958 -0.82747,-0.62216 -1.81353,-1.53637 -2.19126,-2.0316 -0.72608,-0.95194 -6.23786,-5.69491 -7.97705,-6.86437 -2.25322,-1.5151 -5.61797,-4.64443 -5.76889,-5.36526 -0.14156,-0.67616 -0.70925,-5.63668 -1.20717,-10.54833 -0.12003,-1.1841 -0.35594,-2.41019 -0.52422,-2.72464 -0.33349,-0.62312 -1.27833,-1.07556 -2.2461,-1.07556 -1.33036,0 -1.66519,-0.67099 -3.0367,-6.08542 -0.90627,-3.57778 -1.65533,-5.88934 -2.44352,-7.54063 -1.67125,-3.50128 -1.62017,-4.41603 0.41188,-7.37703 l 1.55832,-2.27071 -0.15362,-2.31988 c -0.0845,-1.27593 -0.51784,-3.90125 -0.96301,-5.83403 -0.44516,-1.93279 -0.80939,-4.03773 -0.80939,-4.67765 0,-1.10488 0.0766,-1.22222 1.52135,-2.32922 1.59313,-1.22072 1.65126,-1.3707 1.08209,-2.79179 -0.322,-0.80394 -0.27667,-1.09186 0.54147,-3.43958 1.59002,-4.56268 2.1419,-5.415 5.81598,-8.98222 3.32855,-3.23174 3.36065,-3.25435 7.84015,-5.52218 2.47385,-1.25243 4.71929,-2.47107 4.98987,-2.70809 0.27057,-0.23702 0.83345,-1.10689 1.25085,-1.93303 0.41739,-0.82614 0.87928,-1.57648 1.02642,-1.66742 0.14714,-0.0909 1.44692,-0.0181 2.8884,0.16175 2.36781,0.2955 2.68746,0.28347 3.31028,-0.12462 0.9986,-0.65431 0.89246,-1.71537 -0.41752,-4.17394 -0.6088,-1.1426 -1.02222,-2.16213 -0.91872,-2.26564 0.47229,-0.47228 7.12256,1.37786 10.18698,2.83407 1.21452,0.57713 2.33118,1.04934 2.48147,1.04934 0.15029,0 0.73116,-0.4137 1.29084,-0.91933 1.48443,-1.34109 1.99221,-1.38278 5.047,-0.4144 3.82554,1.21272 6.90757,2.63324 9.72,4.47998 2.7289,1.79188 4.4269,2.41 6.62046,2.41 2.03339,0 3.13194,0.3677 4.23464,1.41739 0.53168,0.50611 1.34399,0.96845 1.86716,1.06271 0.50932,0.0918 2.61015,1.01175 4.6685,2.0444 4.36848,2.1916 5.72927,3.37681 7.90021,6.88087 4.53226,7.31541 6.00706,12.04579 5.93045,19.02171 l -0.0421,3.83646 0.95525,1.98438 c 0.97802,2.03165 1.63635,4.67771 1.37146,5.51232 -0.0816,0.2572 -0.26137,2.73543 -0.39941,5.50718 -0.1644,3.30088 -0.4323,5.80652 -0.77651,7.26262 -0.28904,1.2227 -0.773,3.35587 -1.07546,4.74038 -0.71114,3.25515 -1.19198,4.01649 -3.16611,5.01303 -1.84513,0.93141 -3.32731,2.16125 -3.87038,3.21143 -0.53573,1.03598 -0.47756,3.21645 0.1458,5.46594 0.6959,2.51124 0.66648,3.85919 -0.12116,5.55096 -0.99081,2.12814 -1.53547,2.66548 -13.63717,13.45368 -5.66061,5.04621 -7.12015,6.16173 -9.65729,7.38094 -3.99869,1.92156 -4.42804,1.9937 -11.62355,1.95299 -3.50247,-0.0198 -6.66578,-0.0876 -7.02958,-0.15058 z m 14.16577,-3.39704 c 2.09262,-0.54228 5.45745,-2.2106 7.29258,-3.61574 0.81526,-0.62425 4.65169,-4.16528 8.52538,-7.86897 7.67948,-7.34244 7.84379,-7.55983 7.86258,-10.40315 0.006,-0.90656 0.16558,-3.31516 0.35463,-5.35245 0.36129,-3.89329 0.82571,-5.43363 2.16942,-7.19533 0.60481,-0.79295 0.7959,-0.87446 2.04986,-0.87446 1.53536,0 2.35965,-0.43279 2.9282,-1.53742 0.74316,-1.44385 1.7282,-6.39685 2.16877,-10.90504 0.41721,-4.26916 0.42008,-4.83353 0.0362,-7.11023 -0.42228,-2.50446 -0.70255,-3.14376 -1.23417,-2.81519 -0.40315,0.24916 -1.6964,2.88288 -2.25936,4.60124 -0.45604,1.39196 -0.45444,1.42831 0.0955,2.1721 0.76857,1.03954 0.73774,2.47553 -0.0705,3.28378 -0.76894,0.76894 -2.99492,1.46284 -4.69269,1.46284 -1.81978,0 -2.37274,0.29146 -4.72321,2.4896 -2.21163,2.06829 -4.38939,3.31708 -6.7637,3.8785 -3.14609,0.74392 -8.38181,0.11196 -11.28119,-1.36165 -1.44592,-0.73489 -4.27252,-3.63602 -5.27737,-5.41651 -1.33823,-2.37122 -3.33399,-2.60565 -5.16973,-0.60727 -0.92794,1.01017 -1.15572,2.40701 -1.46165,8.96345 -0.25431,5.45033 -0.23753,6.48618 0.13465,8.31125 0.48463,2.37648 1.24105,3.40826 2.85263,3.8911 1.68891,0.50601 2.6784,0.11838 4.85905,-1.90356 1.52454,-1.41356 2.16644,-1.84074 2.76601,-1.84074 0.42941,0 0.85181,0.11498 0.93866,0.2555 0.22992,0.37202 -0.76855,2.19774 -1.725,3.15419 -1.18458,1.18458 -4.13476,2.86145 -5.67773,3.2272 -2.20321,0.52225 -2.78592,0.8128 -3.18747,1.58932 -0.79435,1.5361 -0.30322,4.64467 0.76652,4.85161 0.31288,0.0605 2.41434,0.23583 4.66991,0.38956 4.29235,0.29256 6.31075,0.69043 8.33892,1.64379 1.03964,0.48868 1.20278,0.67031 1.13406,1.26262 -0.0754,0.64989 -0.16047,0.68921 -1.40319,0.64869 -6.99197,-0.22804 -9.93333,-0.18957 -11.46442,0.14994 -3.24954,0.72056 -4.3632,2.08875 -4.22026,5.18487 0.15455,3.34786 2.17045,6.5128 4.74074,7.44295 1.25934,0.45574 4.07478,0.4337 5.92742,-0.0464 z m -25.20454,-45.96666 c 1.34225,-0.75439 2.04294,-1.93542 2.04294,-3.44344 0,-1.42466 -0.80931,-2.56056 -2.40399,-3.37411 -1.1367,-0.5799 -3.68555,-0.70252 -4.92097,-0.23675 -1.13717,0.42873 -2.44397,1.83491 -2.74535,2.95411 -0.52962,1.96689 1.07149,4.09871 3.5505,4.72733 1.23101,0.31216 3.32836,0.0184 4.47687,-0.62714 z m 23.61078,-6.86789 c 0.91136,-0.98285 2.62874,-1.12868 13.29224,-1.12868 h 9.0632 l 1.71653,0.92598 c 2.39615,1.2926 2.65085,1.0976 2.63375,-2.01639 -0.0201,-3.66819 -0.87811,-4.94716 -4.39331,-6.54909 -1.11161,-0.50658 -2.11585,-1.07433 -2.23164,-1.26168 -0.11579,-0.18735 -0.35129,-1.35685 -0.52334,-2.59889 -0.17204,-1.24205 -0.6367,-3.4853 -1.03256,-4.98502 -0.42443,-1.60796 -0.6511,-3.00025 -0.55245,-3.39331 0.092,-0.36661 0.66386,-1.12507 1.27077,-1.68547 1.06182,-0.98045 1.0892,-1.04559 0.72533,-1.72547 -1.65773,-3.09751 -9.11065,-6.97137 -16.48677,-8.56947 -3.53864,-0.76667 -3.5787,-0.76144 -3.77938,0.49352 -0.092,0.57539 -0.37166,1.23113 -0.62146,1.45719 -0.41334,0.37407 -0.56861,0.35016 -1.72732,-0.26593 -0.70024,-0.37232 -1.36098,-0.58157 -1.46831,-0.465 -0.10733,0.11657 -0.33253,1.04538 -0.50044,2.06403 -0.1679,1.01865 -0.6716,3.34011 -1.11932,5.15881 -1.31442,5.33938 -0.86937,7.21553 3.12192,13.16073 2.34594,3.49437 2.68651,4.68395 1.58828,5.54781 -0.37481,0.29482 -1.18611,0.61674 -1.8029,0.71537 -3.58568,0.57337 -4.55886,3.69425 -1.7103,5.48475 1.23344,0.77529 3.66179,0.58061 4.53748,-0.36379 z"
           style="fill:#040404;stroke-width:0.26458332" />
        <path
           inkscape:connector-curvature="0"
           id="path4559"
           d="m 198.13168,286.08778 8.38623,-1.36489"
           style="fill:none;fill-rule:evenodd;stroke:#000000;stroke-width:0.26458332px;stroke-linecap:butt;stroke-linejoin:miter;stroke-opacity:1" />
      </g>
    </g>
  </g>
</svg>
